<mxfile host="app.diagrams.net" modified="2023-03-13T22:41:23.776Z" agent="5.0 (Windows NT 10.0; Win64; x64) AppleWebKit/537.36 (KHTML, like Gecko) Chrome/111.0.0.0 Safari/537.36" etag="xwO6q6RnpTNDIF-PY87Z" version="21.0.6" type="github">
  <diagram id="C5RBs43oDa-KdzZeNtuy" name="Page-1">
    <mxGraphModel dx="1238" dy="684" grid="1" gridSize="10" guides="1" tooltips="1" connect="1" arrows="1" fold="1" page="1" pageScale="1" pageWidth="827" pageHeight="1169" math="0" shadow="0">
      <root>
        <mxCell id="WIyWlLk6GJQsqaUBKTNV-0" />
        <mxCell id="WIyWlLk6GJQsqaUBKTNV-1" parent="WIyWlLk6GJQsqaUBKTNV-0" />
        <mxCell id="zkfFHV4jXpPFQw0GAbJ--0" value="Cliente&#xa;" style="swimlane;fontStyle=2;align=center;verticalAlign=top;childLayout=stackLayout;horizontal=1;startSize=26;horizontalStack=0;resizeParent=1;resizeLast=0;collapsible=1;marginBottom=0;rounded=0;shadow=0;strokeWidth=1;fontSize=14;" parent="WIyWlLk6GJQsqaUBKTNV-1" vertex="1">
          <mxGeometry x="80" y="80" width="270" height="358" as="geometry">
            <mxRectangle x="230" y="140" width="160" height="26" as="alternateBounds" />
          </mxGeometry>
        </mxCell>
        <mxCell id="zkfFHV4jXpPFQw0GAbJ--1" value="- nome: String" style="text;align=left;verticalAlign=top;spacingLeft=4;spacingRight=4;overflow=hidden;rotatable=0;points=[[0,0.5],[1,0.5]];portConstraint=eastwest;" parent="zkfFHV4jXpPFQw0GAbJ--0" vertex="1">
          <mxGeometry y="26" width="270" height="26" as="geometry" />
        </mxCell>
        <mxCell id="zkfFHV4jXpPFQw0GAbJ--2" value="- idade: int" style="text;align=left;verticalAlign=top;spacingLeft=4;spacingRight=4;overflow=hidden;rotatable=0;points=[[0,0.5],[1,0.5]];portConstraint=eastwest;rounded=0;shadow=0;html=0;" parent="zkfFHV4jXpPFQw0GAbJ--0" vertex="1">
          <mxGeometry y="52" width="270" height="26" as="geometry" />
        </mxCell>
        <mxCell id="zkfFHV4jXpPFQw0GAbJ--3" value="- peso: double" style="text;align=left;verticalAlign=top;spacingLeft=4;spacingRight=4;overflow=hidden;rotatable=0;points=[[0,0.5],[1,0.5]];portConstraint=eastwest;rounded=0;shadow=0;html=0;" parent="zkfFHV4jXpPFQw0GAbJ--0" vertex="1">
          <mxGeometry y="78" width="270" height="32" as="geometry" />
        </mxCell>
        <mxCell id="Adu9tGHQZ3RLBobR_jpV-2" value="- endereco: Endereco" style="text;align=left;verticalAlign=top;spacingLeft=4;spacingRight=4;overflow=hidden;rotatable=0;points=[[0,0.5],[1,0.5]];portConstraint=eastwest;rounded=0;shadow=0;html=0;" vertex="1" parent="zkfFHV4jXpPFQw0GAbJ--0">
          <mxGeometry y="110" width="270" height="30" as="geometry" />
        </mxCell>
        <mxCell id="zkfFHV4jXpPFQw0GAbJ--5" value="+ setNome (nome : String): void" style="text;align=left;verticalAlign=top;spacingLeft=4;spacingRight=4;overflow=hidden;rotatable=0;points=[[0,0.5],[1,0.5]];portConstraint=eastwest;" parent="zkfFHV4jXpPFQw0GAbJ--0" vertex="1">
          <mxGeometry y="140" width="270" height="26" as="geometry" />
        </mxCell>
        <mxCell id="Adu9tGHQZ3RLBobR_jpV-3" value="+ setIdade (idade : int): void" style="text;align=left;verticalAlign=top;spacingLeft=4;spacingRight=4;overflow=hidden;rotatable=0;points=[[0,0.5],[1,0.5]];portConstraint=eastwest;" vertex="1" parent="zkfFHV4jXpPFQw0GAbJ--0">
          <mxGeometry y="166" width="270" height="26" as="geometry" />
        </mxCell>
        <mxCell id="Adu9tGHQZ3RLBobR_jpV-4" value="+ setPeso (peso : double): void" style="text;align=left;verticalAlign=top;spacingLeft=4;spacingRight=4;overflow=hidden;rotatable=0;points=[[0,0.5],[1,0.5]];portConstraint=eastwest;" vertex="1" parent="zkfFHV4jXpPFQw0GAbJ--0">
          <mxGeometry y="192" width="270" height="26" as="geometry" />
        </mxCell>
        <mxCell id="Adu9tGHQZ3RLBobR_jpV-5" value="+ setEndereco (endereco : Endereco): void" style="text;align=left;verticalAlign=top;spacingLeft=4;spacingRight=4;overflow=hidden;rotatable=0;points=[[0,0.5],[1,0.5]];portConstraint=eastwest;" vertex="1" parent="zkfFHV4jXpPFQw0GAbJ--0">
          <mxGeometry y="218" width="270" height="26" as="geometry" />
        </mxCell>
        <mxCell id="Adu9tGHQZ3RLBobR_jpV-8" value="+ getNome () : String" style="text;align=left;verticalAlign=top;spacingLeft=4;spacingRight=4;overflow=hidden;rotatable=0;points=[[0,0.5],[1,0.5]];portConstraint=eastwest;" vertex="1" parent="zkfFHV4jXpPFQw0GAbJ--0">
          <mxGeometry y="244" width="270" height="26" as="geometry" />
        </mxCell>
        <mxCell id="Adu9tGHQZ3RLBobR_jpV-9" value="+ getIdade () : int" style="text;align=left;verticalAlign=top;spacingLeft=4;spacingRight=4;overflow=hidden;rotatable=0;points=[[0,0.5],[1,0.5]];portConstraint=eastwest;" vertex="1" parent="zkfFHV4jXpPFQw0GAbJ--0">
          <mxGeometry y="270" width="270" height="26" as="geometry" />
        </mxCell>
        <mxCell id="Adu9tGHQZ3RLBobR_jpV-10" value="+ getPeso () : double" style="text;align=left;verticalAlign=top;spacingLeft=4;spacingRight=4;overflow=hidden;rotatable=0;points=[[0,0.5],[1,0.5]];portConstraint=eastwest;" vertex="1" parent="zkfFHV4jXpPFQw0GAbJ--0">
          <mxGeometry y="296" width="270" height="26" as="geometry" />
        </mxCell>
        <mxCell id="Adu9tGHQZ3RLBobR_jpV-11" value="+ getEndereco () : Endereco" style="text;align=left;verticalAlign=top;spacingLeft=4;spacingRight=4;overflow=hidden;rotatable=0;points=[[0,0.5],[1,0.5]];portConstraint=eastwest;" vertex="1" parent="zkfFHV4jXpPFQw0GAbJ--0">
          <mxGeometry y="322" width="270" height="26" as="geometry" />
        </mxCell>
        <mxCell id="Adu9tGHQZ3RLBobR_jpV-26" value="" style="endArrow=none;html=1;rounded=0;exitX=0.001;exitY=-0.06;exitDx=0;exitDy=0;exitPerimeter=0;entryX=1.002;entryY=-0.033;entryDx=0;entryDy=0;entryPerimeter=0;" edge="1" parent="zkfFHV4jXpPFQw0GAbJ--0" source="zkfFHV4jXpPFQw0GAbJ--5" target="zkfFHV4jXpPFQw0GAbJ--5">
          <mxGeometry width="50" height="50" relative="1" as="geometry">
            <mxPoint x="240" y="200" as="sourcePoint" />
            <mxPoint x="290" y="150" as="targetPoint" />
          </mxGeometry>
        </mxCell>
        <mxCell id="Adu9tGHQZ3RLBobR_jpV-12" value="Endereco&#xa;" style="swimlane;fontStyle=2;align=center;verticalAlign=top;childLayout=stackLayout;horizontal=1;startSize=26;horizontalStack=0;resizeParent=1;resizeLast=0;collapsible=1;marginBottom=0;rounded=0;shadow=0;strokeWidth=1;fontSize=14;" vertex="1" parent="WIyWlLk6GJQsqaUBKTNV-1">
          <mxGeometry x="490" y="280" width="270" height="358" as="geometry">
            <mxRectangle x="230" y="140" width="160" height="26" as="alternateBounds" />
          </mxGeometry>
        </mxCell>
        <mxCell id="Adu9tGHQZ3RLBobR_jpV-13" value="- logradouro: String" style="text;align=left;verticalAlign=top;spacingLeft=4;spacingRight=4;overflow=hidden;rotatable=0;points=[[0,0.5],[1,0.5]];portConstraint=eastwest;" vertex="1" parent="Adu9tGHQZ3RLBobR_jpV-12">
          <mxGeometry y="26" width="270" height="26" as="geometry" />
        </mxCell>
        <mxCell id="Adu9tGHQZ3RLBobR_jpV-14" value="- bairro: String" style="text;align=left;verticalAlign=top;spacingLeft=4;spacingRight=4;overflow=hidden;rotatable=0;points=[[0,0.5],[1,0.5]];portConstraint=eastwest;rounded=0;shadow=0;html=0;" vertex="1" parent="Adu9tGHQZ3RLBobR_jpV-12">
          <mxGeometry y="52" width="270" height="26" as="geometry" />
        </mxCell>
        <mxCell id="Adu9tGHQZ3RLBobR_jpV-15" value="- municipio: String" style="text;align=left;verticalAlign=top;spacingLeft=4;spacingRight=4;overflow=hidden;rotatable=0;points=[[0,0.5],[1,0.5]];portConstraint=eastwest;rounded=0;shadow=0;html=0;" vertex="1" parent="Adu9tGHQZ3RLBobR_jpV-12">
          <mxGeometry y="78" width="270" height="32" as="geometry" />
        </mxCell>
        <mxCell id="Adu9tGHQZ3RLBobR_jpV-16" value="- estado: String" style="text;align=left;verticalAlign=top;spacingLeft=4;spacingRight=4;overflow=hidden;rotatable=0;points=[[0,0.5],[1,0.5]];portConstraint=eastwest;rounded=0;shadow=0;html=0;" vertex="1" parent="Adu9tGHQZ3RLBobR_jpV-12">
          <mxGeometry y="110" width="270" height="30" as="geometry" />
        </mxCell>
        <mxCell id="Adu9tGHQZ3RLBobR_jpV-27" value="" style="endArrow=none;html=1;rounded=0;exitX=0.001;exitY=-0.06;exitDx=0;exitDy=0;exitPerimeter=0;entryX=1.002;entryY=-0.033;entryDx=0;entryDy=0;entryPerimeter=0;" edge="1" parent="Adu9tGHQZ3RLBobR_jpV-12">
          <mxGeometry width="50" height="50" relative="1" as="geometry">
            <mxPoint x="-1" y="139" as="sourcePoint" />
            <mxPoint x="270" y="140" as="targetPoint" />
          </mxGeometry>
        </mxCell>
        <mxCell id="Adu9tGHQZ3RLBobR_jpV-18" value="+ setLogradouro (logradouro : String): void" style="text;align=left;verticalAlign=top;spacingLeft=4;spacingRight=4;overflow=hidden;rotatable=0;points=[[0,0.5],[1,0.5]];portConstraint=eastwest;" vertex="1" parent="Adu9tGHQZ3RLBobR_jpV-12">
          <mxGeometry y="140" width="270" height="26" as="geometry" />
        </mxCell>
        <mxCell id="Adu9tGHQZ3RLBobR_jpV-19" value="+ setBairro (bairro : String): void" style="text;align=left;verticalAlign=top;spacingLeft=4;spacingRight=4;overflow=hidden;rotatable=0;points=[[0,0.5],[1,0.5]];portConstraint=eastwest;" vertex="1" parent="Adu9tGHQZ3RLBobR_jpV-12">
          <mxGeometry y="166" width="270" height="26" as="geometry" />
        </mxCell>
        <mxCell id="Adu9tGHQZ3RLBobR_jpV-20" value="+ setMunicipio (municipio : String): void" style="text;align=left;verticalAlign=top;spacingLeft=4;spacingRight=4;overflow=hidden;rotatable=0;points=[[0,0.5],[1,0.5]];portConstraint=eastwest;" vertex="1" parent="Adu9tGHQZ3RLBobR_jpV-12">
          <mxGeometry y="192" width="270" height="26" as="geometry" />
        </mxCell>
        <mxCell id="Adu9tGHQZ3RLBobR_jpV-21" value="+ setEstado (estado : String): void" style="text;align=left;verticalAlign=top;spacingLeft=4;spacingRight=4;overflow=hidden;rotatable=0;points=[[0,0.5],[1,0.5]];portConstraint=eastwest;" vertex="1" parent="Adu9tGHQZ3RLBobR_jpV-12">
          <mxGeometry y="218" width="270" height="26" as="geometry" />
        </mxCell>
        <mxCell id="Adu9tGHQZ3RLBobR_jpV-22" value="+ getLogradouro () : String" style="text;align=left;verticalAlign=top;spacingLeft=4;spacingRight=4;overflow=hidden;rotatable=0;points=[[0,0.5],[1,0.5]];portConstraint=eastwest;" vertex="1" parent="Adu9tGHQZ3RLBobR_jpV-12">
          <mxGeometry y="244" width="270" height="26" as="geometry" />
        </mxCell>
        <mxCell id="Adu9tGHQZ3RLBobR_jpV-30" value="+ getBairro () : String" style="text;align=left;verticalAlign=top;spacingLeft=4;spacingRight=4;overflow=hidden;rotatable=0;points=[[0,0.5],[1,0.5]];portConstraint=eastwest;" vertex="1" parent="Adu9tGHQZ3RLBobR_jpV-12">
          <mxGeometry y="270" width="270" height="26" as="geometry" />
        </mxCell>
        <mxCell id="Adu9tGHQZ3RLBobR_jpV-31" value="+ getMunicipio () : String" style="text;align=left;verticalAlign=top;spacingLeft=4;spacingRight=4;overflow=hidden;rotatable=0;points=[[0,0.5],[1,0.5]];portConstraint=eastwest;" vertex="1" parent="Adu9tGHQZ3RLBobR_jpV-12">
          <mxGeometry y="296" width="270" height="26" as="geometry" />
        </mxCell>
        <mxCell id="Adu9tGHQZ3RLBobR_jpV-32" value="+ getEstado () : String" style="text;align=left;verticalAlign=top;spacingLeft=4;spacingRight=4;overflow=hidden;rotatable=0;points=[[0,0.5],[1,0.5]];portConstraint=eastwest;" vertex="1" parent="Adu9tGHQZ3RLBobR_jpV-12">
          <mxGeometry y="322" width="270" height="26" as="geometry" />
        </mxCell>
        <mxCell id="Adu9tGHQZ3RLBobR_jpV-29" value="" style="endArrow=none;html=1;rounded=0;entryX=0.001;entryY=-0.051;entryDx=0;entryDy=0;entryPerimeter=0;exitX=1.001;exitY=-0.019;exitDx=0;exitDy=0;exitPerimeter=0;" edge="1" parent="WIyWlLk6GJQsqaUBKTNV-1" source="zkfFHV4jXpPFQw0GAbJ--5" target="Adu9tGHQZ3RLBobR_jpV-18">
          <mxGeometry width="50" height="50" relative="1" as="geometry">
            <mxPoint x="400" y="310" as="sourcePoint" />
            <mxPoint x="450" y="260" as="targetPoint" />
          </mxGeometry>
        </mxCell>
      </root>
    </mxGraphModel>
  </diagram>
</mxfile>
